solid Created by Gmsh
facet normal 1 0 0
  outer loop
    vertex 5.000000000000001 1 5
    vertex 5.000000000000001 0 -5
    vertex 5.000000000000001 1 -5
  endloop
endfacet
facet normal 1 0 0
  outer loop
    vertex 5.000000000000001 1 5
    vertex 5.000000000000001 0 5
    vertex 5.000000000000001 0 -5
  endloop
endfacet
facet normal -0 0 -1
  outer loop
    vertex 5.000000000000002 1 -5
    vertex -4.999999999999998 0 -5
    vertex -4.999999999999998 1 -5
  endloop
endfacet
facet normal 0 -0 -1
  outer loop
    vertex 5.000000000000002 1 -5
    vertex 5.000000000000002 0 -5
    vertex -4.999999999999998 0 -5
  endloop
endfacet
facet normal -1 0 0
  outer loop
    vertex -4.999999999999998 1 -5
    vertex -4.999999999999998 0 5
    vertex -4.999999999999998 1 5
  endloop
endfacet
facet normal -1 0 0
  outer loop
    vertex -4.999999999999998 1 -5
    vertex -4.999999999999998 0 -5
    vertex -4.999999999999998 0 5
  endloop
endfacet
facet normal -0 0 1
  outer loop
    vertex -4.999999999999998 1 5
    vertex 5.000000000000002 0 5
    vertex 5.000000000000002 1 5
  endloop
endfacet
facet normal 0 0 1
  outer loop
    vertex -4.999999999999998 1 5
    vertex -4.999999999999998 0 5
    vertex 5.000000000000002 0 5
  endloop
endfacet
facet normal 0 1 -0
  outer loop
    vertex 5.000000000000002 1 -5
    vertex -4.999999999999998 1 5
    vertex 5.000000000000002 1 5
  endloop
endfacet
facet normal 0 1 0
  outer loop
    vertex 5.000000000000002 1 -5
    vertex -4.999999999999998 1 -5
    vertex -4.999999999999998 1 5
  endloop
endfacet
facet normal 0 -1 0
  outer loop
    vertex 5.000000000000002 0 -5
    vertex 5.000000000000002 0 5
    vertex -4.999999999999998 0 5
  endloop
endfacet
facet normal 0 -1 0
  outer loop
    vertex 5.000000000000002 0 -5
    vertex -4.999999999999998 0 5
    vertex -4.999999999999998 0 -5
  endloop
endfacet
endsolid Created by Gmsh
